<svg width="859" height="175" viewBox="0 0 859 175" fill="none" xmlns="http://www.w3.org/2000/svg">
<g clip-path="url(#clip0_3815_18)">
<path d="M802.196 58.7272V67.534H760.548V58.7272H802.196ZM773.56 37.8181H783.73V123.216C783.73 126.852 784.355 129.712 785.605 131.795C786.855 133.841 788.484 135.299 790.492 136.17C792.499 137.004 794.639 137.42 796.912 137.42C798.238 137.42 799.374 137.345 800.321 137.193C801.268 137.004 802.101 136.814 802.821 136.625L804.98 145.773C803.995 146.151 802.783 146.492 801.344 146.795C799.904 147.136 798.124 147.307 796.003 147.307C792.291 147.307 788.711 146.492 785.264 144.864C781.855 143.235 779.052 140.811 776.855 137.591C774.658 134.371 773.56 130.375 773.56 125.602V37.8181Z" fill="black"/>
<path d="M741.06 29.6365V146H730.946V29.6365H741.06Z" fill="black"/>
<path d="M670.335 147.818C662.797 147.818 656.131 145.905 650.335 142.079C644.578 138.254 640.07 132.97 636.813 126.227C633.555 119.447 631.926 111.625 631.926 102.761C631.926 93.8219 633.555 85.9621 636.813 79.1818C640.07 72.3636 644.578 67.0605 650.335 63.2727C656.131 59.4469 662.797 57.534 670.335 57.534C677.873 57.534 684.521 59.4469 690.279 63.2727C696.036 67.0984 700.544 72.4014 703.801 79.1818C707.097 85.9621 708.744 93.8219 708.744 102.761C708.744 111.625 707.116 119.447 703.858 126.227C700.601 132.97 696.074 138.254 690.279 142.079C684.521 145.905 677.873 147.818 670.335 147.818ZM670.335 138.557C676.396 138.557 681.529 136.928 685.733 133.67C689.938 130.413 693.119 126.076 695.279 120.659C697.476 115.242 698.574 109.276 698.574 102.761C698.574 96.2461 697.476 90.2613 695.279 84.8068C693.119 79.3522 689.938 74.9772 685.733 71.6818C681.529 68.3863 676.396 66.7386 670.335 66.7386C664.313 66.7386 659.18 68.3863 654.938 71.6818C650.733 74.9772 647.532 79.3522 645.335 84.8068C643.176 90.2613 642.097 96.2461 642.097 102.761C642.097 109.276 643.176 115.242 645.335 120.659C647.532 126.076 650.733 130.413 654.938 133.67C659.142 136.928 664.275 138.557 670.335 138.557ZM694.085 32.1931V40.9999H646.529V32.1931H694.085Z" fill="black"/>
<path d="M619.753 58.7273L587.878 146H577.083L545.208 58.7273H556.173L582.083 132.648H582.878L608.787 58.7273H619.753Z" fill="black"/>
<path d="M531 37.8696L501.723 146.5H492.234L521.511 37.8696H531Z" fill="black"/>
<path d="M858.766 37.8696L829.489 146.5H820L849.277 37.8696H858.766Z" fill="black"/>
<path d="M432.423 58.7272V76.909H379.866V58.7272H432.423ZM391.798 37.8181H416.003V119.182C416.003 121.417 416.344 123.159 417.026 124.409C417.707 125.621 418.654 126.473 419.866 126.966C421.116 127.458 422.556 127.704 424.185 127.704C425.321 127.704 426.457 127.61 427.594 127.42C428.73 127.193 429.601 127.023 430.207 126.909L434.014 144.92C432.802 145.299 431.098 145.735 428.901 146.227C426.704 146.758 424.033 147.079 420.889 147.193C415.056 147.42 409.942 146.644 405.548 144.864C401.192 143.083 397.802 140.318 395.378 136.568C392.954 132.818 391.76 128.083 391.798 122.364V37.8181Z" fill="black"/>
<path d="M366.614 29.6365V146H342.409V29.6365H366.614Z" fill="black"/>
<path d="M330.023 58.7273L299.511 146H272.239L241.727 58.7273H267.295L285.42 121.17H286.33L304.398 58.7273H330.023Z" fill="black"/>
<path d="M160 0C177.673 0 192 14.3269 192 32C192 49.6731 177.673 64 160 64C154.905 64 149.674 65.9256 147.129 70.339L126.143 106.736C121.588 114.637 123.682 124.522 126.472 133.204C127.464 136.291 128 139.583 128 143C128 160.673 113.673 175 96 175C78.3269 175 64 160.673 64 143C64 139.583 64.5357 136.291 65.5277 133.204C68.3175 124.522 70.4113 114.637 65.8562 106.737L44.8696 70.3382C42.3251 65.9252 37.094 64 32 64C14.3269 64 0 49.6731 0 32C0 14.3269 14.3269 0 32 0C49.6731 0 64 14.3269 64 32C64 35.4168 63.4642 38.7082 62.4721 41.7951C59.6818 50.477 57.5877 60.3622 62.1428 68.2624L83.129 104.66C85.6737 109.074 90.9055 111 96 111C101.094 111 106.325 109.074 108.869 104.661L129.856 68.2621C134.411 60.3621 132.318 50.4769 129.528 41.795C128.536 38.7081 128 35.4167 128 32C128 14.3269 142.327 0 160 0Z" fill="black"/>
</g>
<defs>
<clipPath id="clip0_3815_18">
<rect width="859" height="175" fill="white"/>
</clipPath>
</defs>
</svg>
